<?xml version="1.0" encoding="UTF-8"?>
<svg id="Layer_1" xmlns="http://www.w3.org/2000/svg" viewBox="0 0 244.94 49.57">
  <defs>
    <style>
      .cls-1 {
        fill: #5a1f5e;
      }

      .cls-2 {
        fill: #d7c3df;
      }

      .cls-3 {
        fill: #fff;
      }

      .cls-4 {
        fill: #925b95;
      }
    </style>
  </defs>
  <g>
    <path class="cls-3" d="M82.6,36.84v2.69h-20.85V10.05h20.22v2.69h-17.11v10.48h15.26v2.64h-15.26v10.95h17.74v.02h0Z"/>
    <path class="cls-3" d="M121.02,20.16c0,6.27-4.56,10.06-12.05,10.06h-7.93v9.31h-3.11V10.05h11.05c7.49,0,12.05,3.79,12.05,10.11h0ZM117.91,20.16c0-4.73-3.11-7.42-9.01-7.42h-7.84v14.74h7.84c5.9,0,9.01-2.69,9.01-7.32Z"/>
    <path class="cls-3" d="M160.41,10.05v29.49h-3.07v-13.62h-18.46v13.62h-3.11V10.05h3.11v13.15h18.46v-13.15h3.07Z"/>
    <path class="cls-3" d="M175.38,24.79c0-8.59,6.58-15,15.51-15s15.47,6.37,15.47,15-6.62,15-15.47,15-15.51-6.41-15.51-15ZM203.23,24.79c0-7.04-5.27-12.22-12.36-12.22s-12.43,5.17-12.43,12.22,5.31,12.22,12.43,12.22,12.36-5.17,12.36-12.22Z"/>
    <path class="cls-3" d="M241.49,39.53l-6.74-9.48c-.75.09-1.52.12-2.36.12h-7.91v9.36h-3.11V10.05h11.05c7.51,0,12.05,3.79,12.05,10.11,0,4.63-2.43,7.89-6.74,9.27l7.21,10.11h-3.45ZM241.33,20.16c0-4.73-3.11-7.42-9.01-7.42h-7.84v14.79h7.84c5.9,0,9.01-2.74,9.01-7.37Z"/>
  </g>
  <g>
    <g>
      <polygon class="cls-2" points="42.94 22.28 34.39 17.33 42.94 12.4 21.47 0 17.27 2.44 17.26 2.45 17.26 7.38 13.02 4.89 8.69 7.38 8.68 7.39 8.68 12.32 4.44 9.83 0 12.4 8.56 17.34 0 22.28 8.56 27.23 0 32.17 21.47 44.56 42.94 32.17 34.37 27.23 42.94 22.28"/>
      <g>
        <polygon class="cls-4" points="34.31 12.36 17.26 2.45 17.26 7.38 30.03 14.84 34.31 12.36"/>
        <polygon class="cls-4" points="25.75 17.3 8.69 7.38 8.68 7.39 8.68 12.32 21.47 19.78 25.75 17.3"/>
        <polygon class="cls-4" points="42.94 17.38 42.94 12.4 21.47 24.79 0 12.4 0 37.14 0 37.18 21.47 49.57 42.94 37.18 42.94 32.19 21.47 44.56 4.26 34.63 4.26 29.72 21.47 39.67 42.94 27.28 42.94 22.29 21.47 34.69 4.27 24.74 4.25 19.83 21.47 29.78 42.94 17.38"/>
      </g>
    </g>
    <g>
      <polygon class="cls-1" points="8.51 22.3 4.26 19.83 4.27 24.74 8.51 22.3"/>
      <polygon class="cls-1" points="4.25 34.64 8.53 32.19 4.26 29.72 4.25 34.64"/>
      <polygon class="cls-1" points="21.48 39.67 42.94 27.28 42.94 22.29 21.48 34.68 21.48 39.67"/>
      <polygon class="cls-1" points="21.48 49.56 42.94 37.18 42.94 32.19 21.48 44.56 21.48 49.56"/>
      <polygon class="cls-1" points="21.48 24.78 21.48 29.77 42.94 17.38 42.94 12.4 21.48 24.78"/>
    </g>
  </g>
</svg>