<?xml version="1.0" encoding="UTF-8"?>
<svg id="Layer_1" xmlns="http://www.w3.org/2000/svg" xmlns:xlink="http://www.w3.org/1999/xlink" version="1.1" viewBox="0 0 500 500">
  <!-- Generator: Adobe Illustrator 29.1.0, SVG Export Plug-In . SVG Version: 2.1.0 Build 142)  -->
  <defs>
    <style>
      .st0 {
        fill: #c0c1e7;
      }

      .st1 {
        fill: url(#linear-gradient2);
      }

      .st2 {
        fill: url(#linear-gradient1);
      }

      .st3 {
        fill: url(#linear-gradient3);
      }

      .st4 {
        fill: url(#linear-gradient4);
      }

      .st5 {
        fill: url(#radial-gradient);
      }

      .st6 {
        fill: url(#linear-gradient);
      }
    </style>
    <radialGradient id="radial-gradient" cx="51.8" cy="58.6" fx="51.8" fy="58.6" r="429.3" gradientUnits="userSpaceOnUse">
      <stop offset="0" stop-color="#1e1f2a"/>
      <stop offset="1" stop-color="#0a0b0d"/>
    </radialGradient>
    <linearGradient id="linear-gradient" x1="216" y1="119.2" x2="354" y2="119.2" gradientUnits="userSpaceOnUse">
      <stop offset="0" stop-color="#a1a2dc"/>
      <stop offset="1" stop-color="#3c3d50"/>
    </linearGradient>
    <linearGradient id="linear-gradient1" x1="146.4" y1="159.2" x2="284.7" y2="159.2" xlink:href="#linear-gradient"/>
    <linearGradient id="linear-gradient2" x1="35.2" y1="300.2" x2="383" y2="300.2" gradientUnits="userSpaceOnUse">
      <stop offset="0" stop-color="#a1a2dc"/>
      <stop offset=".2" stop-color="#9e9fd8"/>
      <stop offset=".4" stop-color="#9798ce"/>
      <stop offset=".5" stop-color="#8b8cbd"/>
      <stop offset=".7" stop-color="#797aa5"/>
      <stop offset=".8" stop-color="#636487"/>
      <stop offset=".9" stop-color="#484961"/>
      <stop offset="1" stop-color="#3c3d50"/>
    </linearGradient>
    <linearGradient id="linear-gradient3" x1="97.8" y1="229.7" x2="132.3" y2="229.7" gradientUnits="userSpaceOnUse">
      <stop offset="0" stop-color="#a1a2dc"/>
      <stop offset=".1" stop-color="#9c9dd5"/>
      <stop offset=".3" stop-color="#8e8fc2"/>
      <stop offset=".5" stop-color="#7879a4"/>
      <stop offset=".8" stop-color="#5a5b7a"/>
      <stop offset="1" stop-color="#3c3d50"/>
    </linearGradient>
    <linearGradient id="linear-gradient4" x1="102.8" y1="309.9" x2="137.5" y2="309.9" gradientUnits="userSpaceOnUse">
      <stop offset="0" stop-color="#a1a2dc"/>
      <stop offset="1" stop-color="#3c3d50"/>
    </linearGradient>
  </defs>
  <rect class="st5" width="500" height="500"/>
  <g>
    <g>
      <polygon class="st0" points="423.9 229.7 354.7 189.6 423.9 149.6 250 49.2 216 69 216 69.1 216 109 181.6 88.9 146.5 109 146.4 109.1 146.4 149 112.1 128.9 76.1 149.6 145.5 189.7 76.1 229.7 145.5 269.8 76.1 309.8 250 410.2 423.9 309.8 354.5 269.8 423.9 229.7"/>
      <g>
        <polygon class="st6" points="354 149.4 216 69.1 216 109 319.3 169.4 354 149.4"/>
        <polygon class="st2" points="284.7 189.4 146.5 109 146.4 109.1 146.4 149 250 209.4 284.7 189.4"/>
        <polygon class="st1" points="423.9 190 423.9 149.6 250 250 76.1 149.6 76.1 350.1 76.1 350.4 250 450.8 423.9 350.4 423.9 310 250 410.2 110.6 329.8 110.6 290 250 370.6 423.9 270.2 423.9 229.8 250 330.2 110.7 249.6 110.6 209.9 250 290.4 423.9 190"/>
      </g>
    </g>
    <g>
      <polygon class="st3" points="145.1 229.8 110.6 209.9 110.7 249.6 145.1 229.8"/>
      <polygon class="st4" points="110.5 329.8 145.2 310 110.6 290 110.5 329.8"/>
    </g>
  </g>
</svg>